<svg width="91" height="91" viewBox="0 0 91 91" fill="none" xmlns="http://www.w3.org/2000/svg">
<path d="M83.4166 21.6127L65.9749 6.8252L61.0457 12.5127L78.4874 27.3002L83.4166 21.6127ZM29.9541 12.8919L25.0249 7.20436L7.58325 21.6127L12.5124 27.3002L29.9541 12.8919ZM47.3958 30.3335H41.7083V53.0835L59.5291 64.0794L62.5624 59.5294L47.3958 50.4294V30.3335ZM45.4999 15.1669C26.5416 15.1669 11.3749 30.3335 11.3749 49.2919C11.3749 68.2502 26.5416 83.4169 45.4999 83.4169C64.4582 83.4169 79.6249 68.2502 79.6249 49.2919C79.6249 30.3335 64.4582 15.1669 45.4999 15.1669ZM45.4999 75.8335C30.7124 75.8335 18.9583 64.0794 18.9583 49.2919C18.9583 34.5044 30.7124 22.7502 45.4999 22.7502C60.2874 22.7502 72.0416 34.5044 72.0416 49.2919C72.0416 64.0794 60.2874 75.8335 45.4999 75.8335Z" fill="#FCFCFC"/>
</svg>
